<svg width="1000" height="1001" viewBox="0 0 1000 1001" fill="none" xmlns="http://www.w3.org/2000/svg">
<path d="M672.631 74.8149H512.131C506.882 74.8089 501.849 72.7208 498.137 69.0089C494.425 65.297 492.337 60.2644 492.331 55.0149V0.543945H482.331V55.0149C482.34 62.9157 485.482 70.4904 491.069 76.0771C496.656 81.6638 504.23 84.8062 512.131 84.8149H672.631C677.882 84.8149 682.919 86.901 686.632 90.6142C690.345 94.3274 692.431 99.3637 692.431 104.615C692.431 109.866 690.345 114.902 686.632 118.616C682.919 122.329 677.882 124.415 672.631 124.415H275.131C267.228 124.415 259.648 127.555 254.059 133.143C248.471 138.732 245.331 146.311 245.331 154.215C245.331 162.118 248.471 169.698 254.059 175.287C259.648 180.875 267.228 184.015 275.131 184.015H462.631C467.881 184.021 472.913 186.109 476.625 189.821C480.337 193.533 482.425 198.565 482.431 203.815V254.989H467.139V265.104H460.594V275.832H467.139V285.332H460.594V296.06H467.139V305.56H460.594V316.288H467.139V324.744H506.879V316.293H513.424V305.562H506.879V296.062H513.424V285.333H506.879V275.833H513.424V265.104H506.879V254.989H492.431V203.815C492.422 195.914 489.28 188.34 483.693 182.753C478.106 177.166 470.532 174.024 462.631 174.015H275.131C269.88 174.015 264.844 171.929 261.13 168.216C257.417 164.502 255.331 159.466 255.331 154.215C255.331 148.964 257.417 143.927 261.13 140.214C264.844 136.501 269.88 134.415 275.131 134.415H672.631C676.544 134.415 680.42 133.644 684.035 132.147C687.651 130.649 690.936 128.454 693.703 125.687C696.47 122.92 698.665 119.634 700.163 116.019C701.66 112.403 702.431 108.528 702.431 104.615C702.431 100.702 701.66 96.8265 700.163 93.211C698.665 89.5955 696.47 86.3103 693.703 83.5432C690.936 80.776 687.651 78.5809 684.035 77.0833C680.42 75.5857 676.544 74.8149 672.631 74.8149Z" fill="#05456B"/>
<path d="M827.779 471.053C778.334 378.488 633.81 337.001 502.81 337C371.816 337 227.289 378.488 177.844 471.053C131.7 557.439 187.613 678.615 258.005 722.291C302.359 749.811 337.354 737.948 356.75 691.021C373.654 650.117 439.68 627.476 502.81 627.476C565.94 627.476 631.966 650.117 648.873 691.021C668.273 737.948 703.264 749.811 747.618 722.291C818.01 678.615 873.923 557.439 827.779 471.053Z" fill="#05456B"/>
<path d="M824.969 450.01C775.524 357.444 631 315.959 500 315.958C369 315.959 224.476 357.444 175.031 450.01C128.887 536.397 184.8 657.573 255.192 701.244C299.546 728.764 334.541 716.902 353.937 669.975C370.844 629.075 436.87 606.43 500 606.429C563.13 606.428 629.156 629.071 646.063 669.975C665.463 716.902 700.454 728.764 744.808 701.244C815.2 657.573 871.113 536.397 824.969 450.01Z" fill="#EF4923"/>
<path d="M824.969 450.01C775.524 357.444 631 315.959 500 315.958C369 315.959 224.476 357.444 175.031 450.01C128.887 536.397 184.8 657.573 255.192 701.244C299.546 728.764 334.541 716.902 353.937 669.975C370.844 629.075 436.87 606.43 500 606.429C563.13 606.428 629.156 629.071 646.063 669.975C665.463 716.902 700.454 728.764 744.808 701.244C815.2 657.573 871.113 536.397 824.969 450.01Z" fill="#EF4923"/>
<path d="M824.969 450.01C775.524 357.444 631 315.959 500 315.958C369 315.959 224.476 357.444 175.031 450.01C128.887 536.397 184.8 657.573 255.192 701.244C299.546 728.764 334.541 716.902 353.937 669.975C370.844 629.075 436.87 606.43 500 606.429C563.13 606.428 629.156 629.071 646.063 669.975C665.463 716.902 700.454 728.764 744.808 701.244C815.2 657.573 871.113 536.397 824.969 450.01Z" fill="#EF4923"/>
<path d="M824.969 450.01C775.524 357.444 631 315.959 500 315.958C369 315.959 224.476 357.444 175.031 450.01C128.887 536.397 184.8 657.573 255.192 701.244C299.546 728.764 334.541 716.902 353.937 669.975C370.844 629.075 436.87 606.43 500 606.429C563.13 606.428 629.156 629.071 646.063 669.975C665.463 716.902 700.454 728.764 744.808 701.244C815.2 657.573 871.113 536.397 824.969 450.01Z" fill="#EE4823" stroke="white" stroke-miterlimit="10"/>
<path d="M824.969 450.01C775.524 357.444 631 315.959 500 315.958C369 315.959 224.476 357.444 175.031 450.01C128.887 536.397 184.8 657.573 255.192 701.244C299.546 728.764 334.541 716.902 353.937 669.975C370.844 629.075 436.87 606.43 500 606.429C563.13 606.428 629.156 629.071 646.063 669.975C665.463 716.902 700.454 728.764 744.808 701.244C815.2 657.573 871.113 536.397 824.969 450.01Z" fill="#E5E5E5"/>
<path d="M482.627 459.062L433.311 478.783C425.719 481.819 422.026 490.434 425.062 498.026C428.098 505.618 436.713 509.311 444.305 506.275L493.621 486.554C501.213 483.518 504.907 474.902 501.871 467.311C498.835 459.719 490.219 456.026 482.627 459.062Z" fill="#DE1E26"/>
<path d="M532.627 486.062L483.311 505.783C475.719 508.819 472.026 517.434 475.062 525.026C478.098 532.618 486.713 536.311 494.305 533.275L543.621 513.554C551.213 510.518 554.907 501.902 551.871 494.311C548.835 486.719 540.219 483.026 532.627 486.062Z" fill="#DE1E26"/>
<path d="M304.212 606.12C363.911 606.12 412.307 557.724 412.307 498.025C412.307 438.326 363.911 389.93 304.212 389.93C244.513 389.93 196.117 438.326 196.117 498.025C196.117 557.724 244.513 606.12 304.212 606.12Z" fill="#DE1E26"/>
<path d="M500 338.179C624.152 338.179 759.719 373.179 825.152 450.379C825.088 450.257 825.029 450.134 824.965 450.013C775.524 357.444 631 315.959 500 315.958C369 315.959 224.476 357.444 175.031 450.01C174.967 450.131 174.908 450.254 174.844 450.376C240.277 373.179 375.844 338.181 500 338.179Z" fill="#F48551"/>
<path d="M826.292 452.591C829.413 484.245 816.28 577.945 760 606.429C718.251 627.558 699 620.5 667 620.5C612 620.5 599.465 610.678 559.601 561.3C542.743 561.3 419.149 562.452 396.817 561.3C352.824 642.621 257.985 630.9 217.58 588.906C174.38 544.006 169.267 480.906 173.708 452.591C130.012 538.794 185.5 658.005 255.192 701.244C299.546 728.764 334.541 716.902 353.937 669.975C370.844 629.075 436.87 606.43 500 606.429C563.13 606.428 629.156 629.071 646.063 669.975C665.463 716.902 700.454 728.764 744.808 701.244C814.5 658.005 869.988 538.794 826.292 452.591Z" fill="white"/>
<path d="M500 327.958C624.738 327.958 761.343 364.348 822.077 444.87C770.105 355.912 628.544 315.959 500 315.958C371.459 315.958 229.9 355.912 177.922 444.87C238.653 364.344 375.258 327.959 500 327.958Z" fill="#282522"/>
<path d="M824.969 450.01C775.524 357.444 631 315.959 500 315.958C369 315.959 224.476 357.444 175.031 450.01C128.887 536.397 184.8 657.573 255.192 701.244C299.546 728.764 334.541 716.902 353.937 669.975C370.844 629.075 436.87 606.43 500 606.429C563.13 606.428 629.156 629.071 646.063 669.975C665.463 716.902 700.454 728.764 744.808 701.244C815.2 657.573 871.113 536.397 824.969 450.01Z" stroke="#282522" stroke-width="6" stroke-miterlimit="10"/>
<path d="M303.057 613.571C361.99 613.571 409.765 565.796 409.765 506.863C409.765 447.93 361.99 400.155 303.057 400.155C244.124 400.155 196.349 447.93 196.349 506.863C196.349 565.796 244.124 613.571 303.057 613.571Z" fill="#F20E18"/>
<path d="M608.748 369.673C572.902 362.846 536.49 359.422 500 359.449C461.466 359.412 423.026 363.237 385.255 370.866" stroke="#DE1E26" stroke-width="12" stroke-miterlimit="10" stroke-linecap="round"/>
<path d="M303.057 592.016C350.086 592.016 388.21 553.892 388.21 506.863C388.21 459.834 350.086 421.71 303.057 421.71C256.028 421.71 217.904 459.834 217.904 506.863C217.904 553.892 256.028 592.016 303.057 592.016Z" fill="#D6141D" fill-opacity="0.9"/>
<path d="M303.057 572.552C339.336 572.552 368.746 543.142 368.746 506.863C368.746 470.584 339.336 441.174 303.057 441.174C266.778 441.174 237.368 470.584 237.368 506.863C237.368 543.142 266.778 572.552 303.057 572.552Z" fill="#282522"/>
<path d="M303.057 572.552C339.336 572.552 368.746 543.142 368.746 506.863C368.746 470.584 339.336 441.174 303.057 441.174C266.778 441.174 237.368 470.584 237.368 506.863C237.368 543.142 266.778 572.552 303.057 572.552Z" stroke="#282522" stroke-width="6" stroke-miterlimit="10"/>
<path d="M317.049 455.249C317.054 452.744 316.116 450.329 314.421 448.484C312.726 446.64 310.399 445.5 307.903 445.293C306.303 445.165 304.688 445.1 303.057 445.099C301.426 445.098 299.811 445.162 298.212 445.292C295.716 445.5 293.389 446.639 291.694 448.484C290 450.329 289.061 452.744 289.066 455.249V472.055C289.066 477.576 286.873 482.871 282.969 486.775C279.065 490.679 273.77 492.872 268.249 492.872H251.443C248.938 492.868 246.523 493.806 244.678 495.5C242.833 497.195 241.694 499.522 241.486 502.018C241.359 503.618 241.295 505.233 241.293 506.863C241.291 508.493 241.355 510.108 241.486 511.709C241.694 514.206 242.833 516.532 244.678 518.227C246.523 519.922 248.938 520.86 251.443 520.855H268.249C273.77 520.855 279.065 523.048 282.969 526.952C286.873 530.856 289.066 536.151 289.066 541.672V558.478C289.061 560.983 290 563.398 291.694 565.243C293.389 567.088 295.716 568.227 298.212 568.435C299.812 568.562 301.427 568.626 303.057 568.628C304.687 568.63 306.302 568.566 307.903 568.435C310.399 568.227 312.726 567.088 314.421 565.243C316.115 563.398 317.054 560.983 317.049 558.478V541.672C317.049 536.151 319.242 530.856 323.146 526.952C327.05 523.048 332.345 520.855 337.866 520.855H354.672C357.177 520.86 359.592 519.922 361.437 518.227C363.281 516.532 364.421 514.206 364.628 511.709C364.756 510.109 364.82 508.494 364.821 506.863C364.822 505.232 364.757 503.617 364.628 502.018C364.421 499.522 363.281 497.195 361.437 495.5C359.592 493.806 357.177 492.867 354.672 492.872H337.866C332.345 492.872 327.05 490.679 323.146 486.775C319.242 482.871 317.049 477.576 317.049 472.055V455.249Z" fill="#0D1622"/>
<path d="M303.057 613.571C361.99 613.571 409.765 565.796 409.765 506.863C409.765 447.93 361.99 400.155 303.057 400.155C244.124 400.155 196.349 447.93 196.349 506.863C196.349 565.796 244.124 613.571 303.057 613.571Z" stroke="#282522" stroke-width="6" stroke-miterlimit="10"/>
<path d="M303.057 527.689C314.559 527.689 323.883 518.365 323.883 506.863C323.883 495.361 314.559 486.037 303.057 486.037C291.555 486.037 282.231 495.361 282.231 506.863C282.231 518.365 291.555 527.689 303.057 527.689Z" fill="#EE4823"/>
<path d="M292.227 512.766C291.202 510.887 290.684 508.774 290.723 506.635C290.762 504.495 291.357 502.403 292.45 500.563C293.542 498.723 295.095 497.199 296.955 496.141C298.815 495.082 300.918 494.526 303.058 494.527" stroke="#282522" stroke-width="4" stroke-miterlimit="10" stroke-linecap="round"/>
<path d="M319.833 494.56C321.803 499.261 321.98 504.523 320.329 509.346C318.679 514.169 315.315 518.218 310.877 520.726C306.439 523.234 301.234 524.026 296.251 522.951C291.268 521.877 286.852 519.011 283.842 514.897C284.973 517.615 286.668 520.062 288.815 522.077C290.962 524.091 293.512 525.628 296.296 526.584C299.08 527.541 302.036 527.896 304.968 527.627C307.899 527.357 310.74 526.469 313.304 525.021C315.867 523.573 318.094 521.597 319.837 519.225C321.581 516.852 322.801 514.137 323.418 511.259C324.035 508.38 324.035 505.403 323.417 502.525C322.799 499.646 321.577 496.932 319.833 494.56Z" fill="#DE1E26"/>
<path d="M370.047 442.016C371.227 442.016 372.184 441.059 372.184 439.879C372.184 438.699 371.227 437.742 370.047 437.742C368.867 437.742 367.91 438.699 367.91 439.879C367.91 441.059 368.867 442.016 370.047 442.016Z" fill="#F48551"/>
<path d="M236.067 575.997C237.247 575.997 238.204 575.04 238.204 573.86C238.204 572.68 237.247 571.723 236.067 571.723C234.887 571.723 233.93 572.68 233.93 573.86C233.93 575.04 234.887 575.997 236.067 575.997Z" fill="#F48551"/>
<path d="M370.047 575.997C371.227 575.997 372.184 575.04 372.184 573.86C372.184 572.68 371.227 571.723 370.047 571.723C368.867 571.723 367.91 572.68 367.91 573.86C367.91 575.04 368.867 575.997 370.047 575.997Z" fill="#F48551"/>
<path d="M236.067 442.016C237.247 442.016 238.204 441.059 238.204 439.879C238.204 438.699 237.247 437.742 236.067 437.742C234.887 437.742 233.93 438.699 233.93 439.879C233.93 441.059 234.887 442.016 236.067 442.016Z" fill="#F48551"/>
<path d="M786 556C813 506.5 791.039 437.797 756 425C699.5 404.365 677.393 405.794 646.108 421.041C615.737 435.841 599.135 445.865 588.5 488C579.415 523.993 596 576 630.5 592C641.5 598 651.892 623.68 728 609C755.086 597.746 767.277 581.496 786 556Z" fill="#EECE28"/>
<path d="M663.957 418.959C692.249 409.117 694.976 410.088 729 418.959C751.739 424.889 790.236 457.501 788 473C794.181 456.19 749.032 410.657 723.5 404C689.476 395.129 670.79 405.507 642.5 415.349C615.036 424.903 599.879 454.635 590.262 481.834C589.667 483.532 589.246 485.259 589 487C599.036 460.045 636.649 428.457 663.957 418.959Z" fill="#FFE660"/>
<path d="M692.708 614.416C751.641 614.416 799.416 566.641 799.416 507.708C799.416 448.775 751.641 401 692.708 401C633.775 401 586 448.775 586 507.708C586 566.641 633.775 614.416 692.708 614.416Z" stroke="#282522" stroke-width="6" stroke-miterlimit="10"/>
<path d="M689.375 550.135C707.185 550.135 721.623 535.697 721.623 517.887C721.623 500.077 707.185 485.639 689.375 485.639C671.565 485.639 657.127 500.077 657.127 517.887C657.127 535.697 671.565 550.135 689.375 550.135Z" fill="#282522" stroke="#282522" stroke-miterlimit="10"/>
<path d="M699 585C738.764 585 771 553.66 771 515C771 476.34 738.764 445 699 445C659.236 445 627 476.34 627 515C627 553.66 659.236 585 699 585Z" fill="#282522" stroke="#282522" stroke-width="6" stroke-miterlimit="10"/>
<path d="M668.605 525.861C666.497 520.352 666.661 514.231 669.061 508.842C671.461 503.454 675.9 499.237 681.405 497.117" fill="#282522"/>
<path d="M668.605 525.861C666.497 520.352 666.661 514.231 669.061 508.842C671.461 503.454 675.9 499.237 681.405 497.117" stroke="#282522" stroke-width="4" stroke-miterlimit="10" stroke-linecap="round"/>
<path d="M694.5 569C733.436 569 765 537.436 765 498.5C765 459.564 733.436 428 694.5 428C655.564 428 624 459.564 624 498.5C624 537.436 655.564 569 694.5 569Z" fill="#EE4823"/>
<path d="M760.288 473.681C755.972 462.524 748.835 452.651 739.558 445C748.586 459.144 752.207 476.013 749.768 492.562C747.329 509.113 738.992 524.259 726.258 535.27C713.525 546.281 697.232 552.432 680.318 552.617C663.402 552.802 646.977 547.007 634 536.277C643.402 551.009 658.012 561.755 674.985 566.429C691.957 571.101 710.081 569.364 725.833 561.559C741.583 553.751 753.833 540.431 760.2 524.189C766.57 507.947 766.601 489.944 760.288 473.681Z" fill="#DE1E26"/>
<path d="M694.5 569C733.436 569 765 537.436 765 498.5C765 459.564 733.436 428 694.5 428C655.564 428 624 459.564 624 498.5C624 537.436 655.564 569 694.5 569Z" stroke="#282522" stroke-width="6" stroke-miterlimit="10"/>
<path d="M648.4 518C643.526 505.731 643.905 492.104 649.455 480.105C655.003 468.108 665.27 458.718 678 454" stroke="#282522" stroke-width="4" stroke-miterlimit="10" stroke-linecap="round"/>
<path d="M486.089 460.932L439.909 479.375C435.291 481.219 433.043 486.457 434.887 491.075C436.731 495.693 441.969 497.941 446.587 496.097L492.767 477.654C497.385 475.81 499.633 470.572 497.789 465.954C495.945 461.337 490.707 459.088 486.089 460.932Z" fill="#EE4823"/>
<path d="M536.089 487.932L489.909 506.375C485.291 508.219 483.043 513.457 484.887 518.075C486.731 522.693 491.969 524.941 496.587 523.097L542.767 504.654C547.385 502.81 549.633 497.572 547.789 492.954C545.945 488.337 540.707 486.088 536.089 487.932Z" fill="#EE4823"/>
<path d="M486.089 460.932L439.909 479.375C435.291 481.219 433.043 486.457 434.887 491.075C436.731 495.693 441.969 497.941 446.587 496.097L492.767 477.654C497.385 475.81 499.633 470.572 497.789 465.954C495.945 461.337 490.707 459.088 486.089 460.932Z" stroke="#282522" stroke-width="6" stroke-miterlimit="10"/>
<path d="M536.089 487.932L489.909 506.375C485.291 508.219 483.043 513.457 484.887 518.075C486.731 522.693 491.969 524.941 496.587 523.097L542.767 504.654C547.385 502.81 549.633 497.572 547.789 492.954C545.945 488.337 540.707 486.088 536.089 487.932Z" stroke="#282522" stroke-width="6" stroke-miterlimit="10"/>
<path d="M500 315.958C451.6 315.958 401.36 321.629 354.745 333.44C362.845 336.264 371.645 338.824 381.016 341.09C420.138 332.829 460.016 328.683 500 328.72C534.098 328.709 568.13 331.711 601.7 337.69C610.143 335.284 618.444 332.407 626.564 329.072C584.949 320.297 542.53 315.902 500 315.958Z" fill="#EF4923"/>
<path d="M500 322.228C538.874 322.199 577.663 325.862 615.845 333.167C619.564 331.855 623.145 330.49 626.562 329.067C584.948 320.294 542.529 315.9 500 315.958C451.6 315.958 401.36 321.629 354.745 333.44C358.332 334.69 362.062 335.885 365.91 337.029C409.916 327.118 454.892 322.154 500 322.228Z" fill="#F48551"/>
<path d="M500 315.958C451.6 315.958 401.36 321.629 354.745 333.44C362.845 336.264 371.645 338.824 381.016 341.09C420.138 332.829 460.016 328.683 500 328.72C534.098 328.709 568.13 331.711 601.7 337.69C610.143 335.284 618.444 332.407 626.564 329.072C584.949 320.297 542.53 315.902 500 315.958Z" stroke="#282522" stroke-width="6" stroke-miterlimit="10"/>
<path d="M488.958 313.215H478.958V193.815C478.952 188.566 476.864 183.533 473.152 179.821C469.44 176.109 464.407 174.021 459.158 174.015H271.658C263.754 174.015 256.175 170.875 250.586 165.287C244.998 159.698 241.858 152.118 241.858 144.215C241.858 136.312 244.998 128.732 250.586 123.143C256.175 117.555 263.754 114.415 271.658 114.415H669.158C674.409 114.415 679.445 112.329 683.159 108.616C686.872 104.902 688.958 99.8663 688.958 94.615C688.958 89.3637 686.872 84.3275 683.159 80.6143C679.445 76.9011 674.409 74.815 669.158 74.815H508.658C500.757 74.806 493.183 71.6635 487.596 66.0768C482.009 60.4902 478.867 52.9157 478.858 45.015V0H488.858V45.015C488.864 50.2644 490.952 55.2971 494.664 59.009C498.376 62.7209 503.408 64.8089 508.658 64.815H669.158C677.061 64.815 684.641 67.9546 690.23 73.5432C695.818 79.1318 698.958 86.7116 698.958 94.615C698.958 102.518 695.818 110.098 690.23 115.687C684.641 121.275 677.061 124.415 669.158 124.415H271.658C266.407 124.415 261.37 126.501 257.657 130.214C253.944 133.928 251.858 138.964 251.858 144.215C251.858 149.466 253.944 154.502 257.657 158.216C261.37 161.929 266.407 164.015 271.658 164.015H459.158C467.059 164.024 474.633 167.166 480.22 172.753C485.807 178.34 488.949 185.914 488.958 193.815V313.215Z" fill="#282522"/>
<path d="M503.407 244.989H463.666V255.717H503.407V244.989Z" fill="#282522"/>
<path d="M509.951 255.104H457.122V265.832H509.951V255.104Z" fill="#302E2C"/>
<path d="M503.407 265.218H463.666V275.946H503.407V265.218Z" fill="#282522"/>
<path d="M509.951 275.333H457.122V286.061H509.951V275.333Z" fill="#302E2C"/>
<path d="M503.407 285.447H463.666V296.175H503.407V285.447Z" fill="#282522"/>
<path d="M503.407 304.013H463.666V314.741H503.407V304.013Z" fill="#282522"/>
<path d="M509.951 295.562H457.122V306.29H509.951V295.562Z" fill="#302E2C"/>
<path d="M308.775 417.079L303.861 408.065C303.786 407.916 303.671 407.791 303.529 407.703C303.387 407.616 303.224 407.569 303.057 407.569C302.89 407.569 302.727 407.616 302.585 407.703C302.443 407.791 302.328 407.916 302.253 408.065L297.338 417.079C297.255 417.226 297.21 417.393 297.208 417.562C297.205 417.732 297.246 417.899 297.326 418.049C297.406 418.198 297.522 418.325 297.664 418.418C297.806 418.511 297.969 418.566 298.138 418.579H308.055C308.218 418.556 308.373 418.493 308.506 418.396C308.638 418.298 308.745 418.17 308.816 418.021C308.888 417.873 308.921 417.709 308.914 417.545C308.907 417.381 308.859 417.22 308.775 417.079Z" fill="#F48551"/>
<path d="M297.34 596.644L302.254 605.659C302.329 605.808 302.444 605.933 302.586 606.021C302.728 606.108 302.891 606.155 303.058 606.155C303.225 606.155 303.388 606.108 303.53 606.021C303.672 605.933 303.787 605.808 303.862 605.659L308.777 596.644C308.861 596.496 308.906 596.329 308.908 596.16C308.909 595.99 308.868 595.822 308.788 595.672C308.708 595.523 308.591 595.396 308.448 595.303C308.305 595.211 308.142 595.156 307.972 595.144H298.054C297.892 595.169 297.739 595.234 297.608 595.332C297.477 595.429 297.372 595.558 297.301 595.706C297.231 595.853 297.198 596.016 297.204 596.18C297.211 596.343 297.258 596.503 297.34 596.644Z" fill="#F48551"/>
<path d="M392.847 512.581L401.861 507.667C402.01 507.592 402.135 507.477 402.223 507.335C402.31 507.193 402.357 507.03 402.357 506.863C402.357 506.696 402.31 506.533 402.223 506.391C402.135 506.249 402.01 506.134 401.861 506.059L392.847 501.145C392.7 501.061 392.533 501.016 392.364 501.014C392.194 501.012 392.027 501.052 391.877 501.132C391.727 501.212 391.6 501.328 391.508 501.47C391.415 501.612 391.36 501.776 391.347 501.945V511.863C391.371 512.026 391.434 512.18 391.531 512.313C391.628 512.445 391.757 512.552 391.905 512.623C392.054 512.694 392.217 512.727 392.381 512.72C392.546 512.713 392.706 512.665 392.847 512.581Z" fill="#F48551"/>
<path d="M213.278 501.144L204.263 506.058C204.114 506.133 203.989 506.248 203.901 506.39C203.814 506.532 203.768 506.695 203.768 506.862C203.768 507.029 203.814 507.192 203.901 507.334C203.989 507.476 204.114 507.591 204.263 507.666L213.278 512.581C213.426 512.665 213.593 512.709 213.763 512.711C213.933 512.713 214.1 512.672 214.25 512.592C214.4 512.511 214.527 512.394 214.619 512.252C214.711 512.109 214.766 511.946 214.778 511.776V501.859C214.754 501.697 214.691 501.542 214.593 501.41C214.496 501.278 214.367 501.172 214.219 501.101C214.071 501.031 213.907 500.997 213.743 501.005C213.579 501.012 213.419 501.06 213.278 501.144Z" fill="#F48551"/>
</svg>
